<?xml version="1.0" encoding="UTF-8"?>
<svg id="logo_multipago_bco" xmlns="http://www.w3.org/2000/svg" viewBox="0 0 619.14 188.88">
  <defs>
    <style>
      .cls-1 {
        fill: #fff;
      }
    </style>
  </defs>
  <path class="cls-1" d="M35,37.39l8.61,8.17L46.75,0,5.24,9.99l6.8,6.25s-31.16,50.96,6.8,113.65c0,0-18.84-48.5,16.17-92.5"/>
  <path class="cls-1" d="M401.13,78.34c-3.5,0-6.49.62-8.87,1.84-2.39,1.25-4.36,2.91-5.84,4.98-1.5,2.1-2.62,4.59-3.32,7.45-.7,2.91-1.06,6.05-1.06,9.32,0,2.85.57,5.14,1.69,6.75,1.01,1.48,2.88,2.18,5.63,2.18,1.17,0,2.36-.21,3.55-.62,1.25-.42,2.47-.99,3.66-1.69s2.36-1.53,3.48-2.41c.99-.8,1.89-1.61,2.7-2.39l4.39-24.7c-.75-.26-1.5-.44-2.23-.52-1.14-.13-2.41-.21-3.76-.21"/>
  <path class="cls-1" d="M340.85,78.23c-2.47,0-4.85.49-7.06,1.43-2.1.91-4.07,2.15-5.92,3.71l-3.71,21.23c1.38,1.63,3.01,3.11,4.88,4.39,1.95,1.32,4.05,1.97,6.41,1.97,2.85,0,5.11-.7,6.88-2.13,1.84-1.48,3.3-3.4,4.36-5.68,1.12-2.36,1.89-4.98,2.34-7.73.44-2.8.67-5.48.67-7.94,0-2.98-.75-5.32-2.21-6.9-1.45-1.58-3.63-2.34-6.62-2.34"/>
  <path class="cls-1" d="M457.82,78.34c-3.63,0-6.69.65-9.13,1.95s-4.41,3.06-5.89,5.27c-1.53,2.23-2.62,4.85-3.3,7.78-.67,2.98-1.04,6.2-1.04,9.55,0,2.67.62,4.46,1.87,5.32,1.4.99,3.43,1.48,5.99,1.48,1.25,0,2.49-.21,3.68-.65,1.3-.47,2.59-1.06,3.87-1.79,1.27-.75,2.52-1.56,3.66-2.44,1.01-.78,2-1.56,2.93-2.36l4.05-23.35c-.83-.21-1.69-.36-2.59-.49-1.4-.16-2.78-.26-4.13-.26"/>
  <path class="cls-1" d="M521.5,80.59c-2.23-1.48-5.11-2.26-8.64-2.26-3.27,0-6.1.65-8.43,1.89-2.34,1.27-4.28,2.96-5.79,4.98-1.53,2.08-2.67,4.51-3.43,7.27-.78,2.8-1.17,5.68-1.17,8.56,0,2,.26,3.66.75,4.93.47,1.19,1.14,2.13,2.05,2.8.96.73,2.15,1.25,3.58,1.56,1.53.34,3.3.49,5.32.49,3.19,0,5.99-.65,8.3-1.95,2.36-1.3,4.33-3.04,5.84-5.11,1.56-2.13,2.72-4.59,3.48-7.32.78-2.8,1.17-5.71,1.17-8.69,0-3.48-1.01-5.84-3.06-7.21"/>
  <path class="cls-1" d="M587.54,128.73c1.63-2.8,3.09-5.73,4.33-8.8,3.17-7.89,4.96-16.48,4.96-25.48v-.31c-.05-9.99-2.26-19.46-6.18-28.02-10.74-23.51-34.38-39.93-61.65-39.93H90.71c-12.9,0-28.67,4.83-38.25,12.22l-1.63,23.74-12.14-11.55c-2.05,2.59-5.14,6.98-7.24,10.77-.44.78-.83,1.58-1.22,2.39-4.67,9.24-7.34,19.67-7.34,30.7,0,1.22.03,2.47.1,3.68.44,8.2,2.34,16.04,5.45,23.22,10.43,24.26,34.46,41.36,62.3,41.36h438.21c16.53-1.01,27.56-4.98,37.73-11.52l1.69-24.42,12.38,11.75c1.95-2.47,5.19-7.11,6.77-9.81M297.18,48.57c1.56-1.45,3.4-2.21,5.48-2.21s3.92.75,5.48,2.21c1.58,1.48,2.36,3.32,2.36,5.42s-.78,4.02-2.31,5.53c-1.53,1.48-3.37,2.23-5.53,2.23s-4.02-.75-5.55-2.23-2.31-3.35-2.31-5.53.8-3.94,2.36-5.42M166.4,84.85c-.08.75-.18,1.4-.34,2.21l-6.28,35.24h-14.58l6.62-36.3c.13-.54.34-.67.34-1.01v-1.43c0-1.69-.57-2.98-1.45-3.92-.83-.88-2.54-1.38-4.8-1.38-1.92,0-3.89.34-5.86,1.14-1.82.75-3.48,1.58-4.88,2.72l-7.14,40.14h-14.58l6.9-38.64c.16-.83.18-.91.18-1.06,0-.83-.18-1.5-.49-2-.36-.54-.8-.99-1.35-1.3-.6-.34-1.27-.62-2-.75-.78-.16-1.56-.29-2.31-.29-2.05,0-4.13.31-6.1,1.12-1.82.73-3.5,1.56-4.96,2.78l-7.14,40.14h-14.58l7.32-40.76c.13-.7.18-1.04.18-1.58,0-.67.08-1.35.21-1.97,0-.96-.13-1.89-.34-2.8-.23-1.01-.54-2.1-.96-3.24l-.47-1.3,13.99-6.02.57,1.35c.44,1.01.8,2.02,1.06,2.93.05.21.13.44.18.65,1.58-1.04,3.24-1.97,4.96-2.75,2.52-1.14,5.09-1.74,7.63-1.74,3.06,0,6.02.54,8.8,1.58,2.44.91,4.49,2.44,6.15,4.49,2.23-1.63,4.67-3.01,7.24-4.1,3.11-1.32,6.38-1.97,9.76-1.97,2.54,0,4.98.39,7.21,1.14,2.26.78,4.28,1.89,5.97,3.37,1.74,1.48,3.06,3.35,4,5.55.91,2.18,1.4,4.64,1.4,7.4,0,.83-.05,1.56-.1,2.31M203.4,122.24l-.44-.44c-.54-.96-.93-1.53-1.19-2.31-.03-.13-.08-.23-.1-.36-1.79,1.17-3.66,2.21-5.63,3.09-2.8,1.25-5.81,1.89-9,1.89-6.51,0-11.34-1.43-14.38-4.2-3.06-2.83-4.62-6.95-4.62-12.25,0-.96.03-1.97.1-2.98.08-1.04.21-2.13.44-3.27l5.68-32.75,15.46-4.13-6.67,37.86c-.13.7-.23,1.35-.31,2.02-.08.65-.1,1.25-.1,1.76,0,1.48.36,2.62,1.12,3.48.47.54,1.66,1.19,4.62,1.19,1.25,0,2.52-.23,3.76-.67,1.32-.47,2.65-1.06,3.92-1.76,1.27-.7,2.49-1.5,3.61-2.41l2.96-2.36,6.02-35,15.46-4.13-7.73,43.9c-.13.8-.23,1.56-.31,2.23-.08.67-.1,1.32-.1,1.97,0,1.3.13,2.57.44,3.81.31,1.32.75,2.54,1.3,4.15l.65,1.66h-15,.05ZM241.08,109.86h8.56l-2.05,12.04-.86.73c-1.45.44-2.96.78-4.49,1.04-1.53.26-3.06.39-4.54.39-4.88,0-8.54-1.35-10.87-4.02-2.28-2.59-3.45-5.92-3.45-9.89,0-.52.05-1.12.08-1.79.03-.7.18-1.35.34-1.95l10.43-58.33,15.44-4-10.77,63.44c-.05.26-.8,2.31,2.18,2.31M272.92,109.84h7.06l-2.08,12.2-.93.7c-1.19.29-2.39.57-3.55.86-1.27.31-2.59.49-3.92.49-2.39,0-4.49-.31-6.25-1.06-1.79-.75-3.3-1.69-4.49-2.96-1.19-1.3-2.1-2.65-2.65-4.39-.54-1.69-.8-3.11-.8-5.03,0-1.01.13-1.3.36-2.39l4.98-26.23h-6.02l2.08-15.46h6.07l1.97-10.51,15.49-4.18-2.75,14.69h10.74l-5.97,15.46h-6.93l-4.44,26.99c0,.67-.83.86,2.05.86M284.05,123.8l9.99-55.68h14.56l-9.96,55.68h-14.58ZM362.23,99.64c-1.06,4.54-2.8,8.64-5.19,12.22-2.41,3.61-5.53,6.51-9.29,8.74-3.79,2.26-8.43,3.32-13.78,3.32-2.75,0-5.4-.67-7.91-1.79-1.66-.73-3.22-1.89-4.64-2.96l-4.13,23.17h-14.69l11.03-61.21c.05-.7.16-.91.26-1.56.08-.52.13-1.01.13-1.5,0-2.02-.52-4.05-1.53-6.02l-.73-1.4,14.12-6.02.65,1.12c.67,1.17,1.19,2.39,1.53,3.66,1.76-1.19,3.68-2.15,5.71-2.88,5.68-2.02,11.86-2.02,16.97,0,2.57,1.01,4.88,2.49,6.8,4.33,1.95,1.87,3.48,4.07,4.59,6.64,1.12,2.54,1.66,5.37,1.66,8.38,0,4.62-.52,9.24-1.58,13.7M403.36,122.19l-.42-.47c-.62-1.09-1.06-1.84-1.27-2.75-1.63,1.06-3.32,2.05-5.03,2.96-2.62,1.38-5.5,2.08-8.56,2.08-6.49,0-11.55-1.95-15-5.73-3.43-3.76-5.16-8.95-5.16-15.39,0-5.79.73-11.08,2.18-15.67,1.48-4.67,3.74-8.72,6.69-12.01,2.98-3.3,6.72-5.86,11.13-7.6,4.36-1.74,9.5-2.59,15.26-2.59,3.58,0,6.88.39,9.78,1.17,2.85.75,5.92,1.87,9.11,3.32l1.04.47-6.88,39.26c-.21,1.17-.31,2.39-.31,3.58-.08,1.12.05,2.1.36,3.06.34,1.12.7,1.95,1.04,2.98l1.14,3.37h-15.08l-.03-.03ZM468.33,129.95c-1.71,3.04-3.87,5.68-6.44,7.84-2.57,2.15-5.55,3.87-8.9,5.03-3.32,1.19-6.95,1.79-10.79,1.79-1.97,0-3.89-.13-5.68-.39-1.82-.26-3.58-.67-5.29-1.22-1.71-.54-3.43-1.27-5.16-2.15-1.71-.88-3.55-1.97-5.5-3.27l-1.3-.86,8.9-11.83,1.17.8c1.35.96,2.65,1.74,3.81,2.34,1.17.6,2.31,1.09,3.45,1.45,1.12.36,2.28.62,3.43.78,1.17.18,2.44.26,3.79.26,4.05,0,7.16-.96,9.26-2.85,2.1-1.92,3.55-4.8,4.26-8.54-1.35.78-2.75,1.45-4.18,2.05-2.62,1.09-5.4,1.66-8.28,1.66-6.51,0-11.6-1.66-15.13-4.9-3.55-3.3-5.35-8.36-5.35-15.05,0-5.5.73-10.64,2.13-15.26,1.43-4.67,3.63-8.72,6.51-12.07,2.91-3.35,6.54-5.97,10.82-7.84,4.28-1.84,9.34-2.78,15.02-2.78,3.76,0,7.34.34,10.59.99,3.3.65,6.69,1.84,10.12,3.53l.99.49-8.69,49.85c-.67,3.68-1.87,7.11-3.58,10.15M535.59,100.86c-1.53,4.44-3.76,8.41-6.64,11.83-2.88,3.45-6.46,6.2-10.64,8.25s-8.95,3.06-14.19,3.06c-3.24,0-6.33-.44-9.13-1.3-2.85-.86-5.4-2.18-7.5-3.94-2.15-1.76-3.87-3.97-5.09-6.56-1.22-2.59-1.84-5.66-1.84-9.13,0-5.01.67-9.83,2.02-14.38,1.35-4.59,3.45-8.67,6.2-12.17,2.78-3.53,6.31-6.36,10.48-8.43,4.18-2.08,9.13-3.14,14.74-3.14,3.32,0,6.46.47,9.32,1.4,2.91.93,5.48,2.36,7.63,4.2,2.18,1.87,3.89,4.2,5.11,6.95,1.22,2.72,1.84,5.86,1.84,9.32,0,4.88-.78,9.6-2.31,14.04"/>
  <path class="cls-1" d="M600.33,59.06s18.81,48.5-16.19,92.45l-8.59-8.17-3.17,45.54,41.52-9.99-6.77-6.25s31.11-50.94-6.8-113.6"/>
</svg>